<?xml version="1.0" standalone="no"?>
<!DOCTYPE svg PUBLIC "-//W3C//DTD SVG 20010904//EN"
 "http://www.w3.org/TR/2001/REC-SVG-20010904/DTD/svg10.dtd">
<svg version="1.0" xmlns="http://www.w3.org/2000/svg"
 width="500.000000pt" height="500.000000pt" viewBox="0 0 500.000000 500.000000"
 preserveAspectRatio="xMidYMid meet">
<metadata>
Created by potrace 1.14, written by Peter Selinger 2001-2017
</metadata>
<g transform="translate(0.000000,500.000000) scale(0.100000,-0.100000)"
fill="#000000" stroke="none">
<path d="M0 2500 l0 -2500 2500 0 2500 0 0 2500 0 2500 -2500 0 -2500 0 0
-2500z m1580 1325 l0 -25 -300 0 -300 0 0 -300 0 -300 -25 0 -25 0 0 325 0
325 325 0 325 0 0 -25z m2530 -300 l0 -325 -35 0 -35 0 0 290 0 290 -305 0
-305 0 0 35 0 35 340 0 340 0 0 -325z m-1368 -765 c101 -28 172 -112 185 -218
l6 -52 -77 0 c-71 0 -76 2 -76 21 0 35 -29 84 -59 102 -56 33 -178 15 -195
-28 -14 -37 -6 -74 21 -94 25 -21 50 -29 195 -66 79 -20 145 -61 172 -105 24
-41 32 -137 16 -194 -15 -55 -60 -111 -110 -136 -57 -29 -153 -41 -229 -29
-149 23 -234 111 -248 253 l-6 66 77 0 76 0 0 -35 c0 -104 82 -165 200 -148
106 15 137 131 46 177 -17 9 -71 25 -119 36 -92 21 -170 55 -199 87 -71 78
-61 230 19 306 62 58 204 85 305 57z m-512 -905 l0 -65 -275 0 -275 0 0 65 0
65 275 0 275 0 0 -65z m-1250 -680 l0 -315 316 0 315 0 -3 -27 -3 -28 -337 -3
-338 -2 0 345 0 345 25 0 25 0 0 -315z m3120 -15 l0 -330 -330 0 -330 0 0 25
0 25 300 0 300 0 0 305 0 305 30 0 30 0 0 -330z"/>
</g>
</svg>
